<svg xmlns="http://www.w3.org/2000/svg" viewBox="0 0 1200 1200">
  <defs>
    <linearGradient id="bg" x1="0" y1="0" x2="1" y2="1">
      <stop offset="0%" stop-color="#1d4ed8"/>
      <stop offset="100%" stop-color="#7c3aed"/>
    </linearGradient>
    <linearGradient id="rgb" x1="0" y1="0" x2="1" y2="0">
      <stop offset="0%" stop-color="#22c55e"/>
      <stop offset="50%" stop-color="#38bdf8"/>
      <stop offset="100%" stop-color="#f472b6"/>
    </linearGradient>
  </defs>
  <rect width="1200" height="1200" fill="url(#bg)"/>
  <g transform="translate(180 340)">
    <rect x="0" y="0" width="840" height="150" rx="28" fill="#0f172a"/>
    <rect x="40" y="18" width="760" height="26" rx="13" fill="url(#rgb)"/>
    <g fill="#1e293b">
      <rect x="70" y="60" width="90" height="54" rx="8"/>
      <rect x="185" y="60" width="90" height="54" rx="8"/>
      <rect x="300" y="60" width="90" height="54" rx="8"/>
      <rect x="415" y="60" width="90" height="54" rx="8"/>
      <rect x="530" y="60" width="90" height="54" rx="8"/>
      <rect x="645" y="60" width="90" height="54" rx="8"/>
    </g>
    <rect x="70" y="150" width="700" height="24" rx="12" fill="#94a3b8"/>
  </g>
  <g transform="translate(240 600)">
    <rect x="0" y="0" width="720" height="130" rx="26" fill="#111827" opacity="0.88"/>
    <rect x="34" y="16" width="652" height="22" rx="11" fill="url(#rgb)"/>
    <g fill="#334155">
      <rect x="60" y="52" width="76" height="46" rx="7"/>
      <rect x="156" y="52" width="76" height="46" rx="7"/>
      <rect x="252" y="52" width="76" height="46" rx="7"/>
      <rect x="348" y="52" width="76" height="46" rx="7"/>
      <rect x="444" y="52" width="76" height="46" rx="7"/>
      <rect x="540" y="52" width="76" height="46" rx="7"/>
    </g>
  </g>
  <text x="150" y="150" font-family="Arial, sans-serif" font-size="84" font-weight="700" fill="#eff6ff">G.Skill Trident Z5 RGB</text>
  <text x="170" y="1040" font-family="Arial, sans-serif" font-size="46" fill="#ddd6fe">DDR5-7200  •  64GB kit  •  RGB memory for gaming builds</text>
</svg>
