<svg xmlns="http://www.w3.org/2000/svg" viewBox="0 0 1200 1200">
  <defs>
    <linearGradient id="bg" x1="0" y1="0" x2="1" y2="1">
      <stop offset="0%" stop-color="#7c2d12"/>
      <stop offset="100%" stop-color="#ea580c"/>
    </linearGradient>
  </defs>
  <rect width="1200" height="1200" fill="url(#bg)"/>
  <rect x="310" y="250" width="580" height="580" rx="40" fill="#f8fafc" opacity="0.94"/>
  <rect x="395" y="335" width="410" height="410" rx="28" fill="#1f2937"/>
  <rect x="445" y="385" width="310" height="310" rx="22" fill="#374151"/>
  <circle cx="600" cy="540" r="98" fill="#ea580c"/>
  <circle cx="600" cy="540" r="56" fill="#fed7aa"/>
  <g fill="#cbd5e1">
    <rect x="260" y="360" width="40" height="90" rx="10"/>
    <rect x="260" y="500" width="40" height="90" rx="10"/>
    <rect x="260" y="640" width="40" height="90" rx="10"/>
    <rect x="900" y="360" width="40" height="90" rx="10"/>
    <rect x="900" y="500" width="40" height="90" rx="10"/>
    <rect x="900" y="640" width="40" height="90" rx="10"/>
    <rect x="360" y="200" width="90" height="40" rx="10"/>
    <rect x="500" y="200" width="90" height="40" rx="10"/>
    <rect x="640" y="200" width="90" height="40" rx="10"/>
    <rect x="360" y="840" width="90" height="40" rx="10"/>
    <rect x="500" y="840" width="90" height="40" rx="10"/>
    <rect x="640" y="840" width="90" height="40" rx="10"/>
  </g>
  <text x="110" y="150" font-family="Arial, sans-serif" font-size="88" font-weight="700" fill="#fff7ed">AMD Ryzen 9 7950X3D</text>
  <text x="160" y="1010" font-family="Arial, sans-serif" font-size="48" fill="#ffedd5">16 cores  •  3D V-Cache  •  AM5 platform</text>
</svg>
